{"glyphs":{" ":{"ha":417,"x_min":0,"x_max":0,"o":""},"'":{"ha":385,"x_min":89,"x_max":590,"o":"m 89 786 q 286 826 231 794 q 315 894 304 836 q 329 1007 326 953 l 332 1060 q 334 1001 332 1036 q 347 901 336 965 q 376 825 358 836 q 451 802 397 811 q 547 792 504 793 l 590 789 q 382 747 429 776 q 355 678 365 738 q 342 563 344 618 l 339 508 q 338 532 339 517 q 333 587 338 547 q 324 658 329 626 q 308 717 319 689 q 283 753 297 746 q 214 770 264 761 q 128 783 164 779 q 89 786 93 786 m 231 898 q 235 902 231 898 q 251 907 239 907 q 272 898 263 907 q 281 877 281 889 q 272 857 281 865 q 251 849 263 849 q 231 857 239 849 q 222 877 222 865 q 231 898 222 889 m 388 905 q 393 909 388 905 q 409 914 397 914 q 429 905 421 914 q 438 884 438 896 q 429 864 438 872 q 409 856 421 856 q 388 864 397 856 q 379 884 379 872 q 388 905 379 896 m 235 723 q 239 727 235 723 q 255 732 243 732 q 276 723 267 732 q 285 702 285 714 q 276 682 285 690 q 255 674 267 674 q 235 682 243 674 q 226 702 226 690 q 235 723 226 714 m 394 721 q 399 725 394 721 q 415 729 403 729 q 435 721 426 729 q 444 701 444 713 q 435 680 444 689 q 415 671 426 671 q 394 680 403 671 q 386 701 386 689 q 394 721 386 713 z "},"*":{"ha":386,"x_min":90,"x_max":592,"o":"m 276 767 q 237 778 261 772 q 188 787 213 783 q 140 793 163 790 q 104 797 118 796 l 90 799 q 264 828 200 804 q 149 956 229 878 q 306 868 242 888 q 323 947 317 896 q 331 1035 329 997 l 333 1071 q 357 872 336 939 q 421 923 383 888 q 483 986 458 958 l 508 1015 q 397 828 411 890 q 473 811 424 818 q 557 803 522 804 l 592 800 q 414 772 478 792 q 463 715 432 747 q 517 661 494 682 l 539 642 q 368 736 431 717 q 351 656 358 710 q 342 560 344 601 l 340 519 q 311 724 336 653 q 167 582 254 682 q 276 767 256 697 z "},",":{"ha":210,"x_min":67,"x_max":415,"o":"m 196 36 q 147 48 179 43 q 91 56 114 53 q 67 58 68 58 q 188 79 143 63 q 156 117 176 94 q 122 153 136 139 l 107 168 q 217 107 171 121 q 235 249 232 151 q 251 110 236 157 q 296 145 269 121 q 340 189 322 169 l 357 208 q 279 79 290 122 q 333 67 299 72 q 390 61 367 63 l 415 60 q 292 40 336 54 q 379 -51 318 1 q 260 15 303 1 q 248 -42 253 -3 q 242 -106 243 -82 q 240 -136 240 -129 q 219 7 238 -43 q 177 -31 203 -7 q 136 -74 151 -56 l 119 -92 q 196 36 181 -11 z "},".":{"ha":265,"x_min":119,"x_max":472,"o":"m 119 71 q 258 100 219 76 q 278 150 269 107 q 288 224 286 193 q 289 264 289 254 q 321 99 293 117 q 374 83 336 89 q 442 75 411 76 l 472 74 q 325 44 358 65 q 306 -7 314 38 q 297 -83 299 -51 q 294 -125 294 -115 q 294 -108 294 -118 q 291 -69 293 -97 q 285 -19 289 -42 q 273 23 281 3 q 256 47 265 43 q 208 60 242 54 q 146 68 174 65 l 119 71 m 219 149 q 222 152 219 149 q 233 156 225 156 q 247 149 242 156 q 253 135 253 143 q 247 120 253 126 q 233 114 242 114 q 219 120 225 114 q 213 135 213 126 q 219 149 213 143 m 329 155 q 332 158 329 155 q 344 161 335 161 q 358 155 353 161 q 364 140 364 149 q 358 126 364 132 q 344 119 353 119 q 329 126 335 119 q 324 140 324 132 q 329 155 324 149 m 222 27 q 225 30 222 27 q 236 33 228 33 q 251 27 244 33 q 257 13 257 21 q 251 -2 257 4 q 236 -8 244 -8 q 222 -2 228 -8 q 215 13 215 4 q 222 27 215 21 m 333 26 q 336 29 333 26 q 348 32 339 32 q 363 26 357 32 q 368 11 368 19 q 363 -3 368 3 q 348 -10 357 -10 q 333 -3 339 -10 q 328 11 328 3 q 333 26 328 19 z "},"A":{"ha":682,"x_min":126,"x_max":888,"o":"m 564 364 q 516 545 542 451 q 475 689 490 639 l 461 740 l 343 351 l 564 364 m 126 0 q 407 799 371 638 q 404 906 418 847 q 368 1000 390 965 l 543 1000 q 633 566 529 942 q 799 7 736 190 q 888 -153 831 -87 l 633 -153 q 637 -146 635 -150 q 643 -126 639 -142 q 649 -93 647 -111 q 651 -46 651 -75 q 644 17 650 -17 q 576 318 624 126 q 404 307 471 314 q 335 280 368 303 q 297 214 303 257 q 292 134 293 169 q 304 65 290 99 q 349 0 318 31 l 126 0 z "},"B":{"ha":553,"x_min":106,"x_max":758,"o":"m 328 465 q 331 76 328 215 q 339 13 331 42 q 560 62 483 11 q 633 232 638 113 q 613 331 632 288 q 566 397 594 374 q 503 438 538 421 q 436 459 469 456 q 374 466 403 463 q 328 465 344 469 m 328 546 q 390 553 360 549 q 463 573 421 558 q 536 610 506 588 q 590 671 567 632 q 614 760 613 710 q 596 854 614 814 q 550 917 578 894 q 481 951 522 939 q 406 967 440 964 q 329 971 371 971 q 328 546 328 771 m 119 -54 q 127 -51 122 -54 q 144 -37 132 -49 q 167 -10 157 -26 q 185 38 176 6 q 193 111 193 71 q 188 815 197 439 q 176 915 186 872 q 156 977 167 957 q 133 1010 146 997 q 113 1024 119 1022 q 106 1026 107 1026 q 131 1031 114 1028 q 215 1037 149 1033 q 361 1038 281 1040 q 549 1006 467 1036 q 683 908 631 975 q 735 749 735 842 q 683 606 733 667 q 549 511 633 546 q 701 412 644 478 q 758 251 758 346 q 660 31 758 113 q 376 -56 563 -51 q 374 -56 375 -56 q 340 -56 357 -56 q 119 -54 229 -56 z "},"C":{"ha":521,"x_min":93,"x_max":722,"o":"m 650 839 q 628 922 660 897 q 549 944 596 947 q 398 792 461 938 q 328 397 335 646 q 340 222 325 311 q 385 71 354 133 q 501 -75 436 -36 q 621 -83 565 -114 q 653 -49 642 -71 q 668 -8 665 -28 q 669 34 671 11 q 666 65 668 57 q 663 78 664 74 q 722 11 704 64 q 714 -75 739 -42 q 501 -154 639 -175 q 406 -117 453 -147 q 328 -48 360 -86 q 276 24 296 -10 q 249 79 256 57 q 178 249 219 164 q 119 361 136 333 q 93 403 103 389 q 133 475 118 446 q 156 525 147 504 q 188 603 164 546 q 238 725 211 661 q 518 1026 338 965 q 604 1026 556 1039 q 688 971 653 1013 q 714 869 722 929 q 708 846 711 857 q 699 824 706 835 q 688 806 693 814 q 674 790 683 799 q 661 776 665 781 q 645 763 657 771 q 630 752 633 754 q 614 742 626 750 q 600 732 601 733 q 650 839 640 788 z "},"D":{"ha":593,"x_min":42,"x_max":800,"o":"m 276 1000 q 279 40 274 340 q 288 -26 279 7 q 425 6 363 -22 q 539 88 488 33 q 620 236 590 143 q 651 453 650 329 q 634 645 653 558 q 585 787 615 732 q 515 883 556 842 q 438 946 474 925 q 363 980 403 967 q 306 996 324 993 q 276 1000 289 999 m 57 -97 q 65 -94 60 -97 q 83 -80 69 -92 q 106 -51 96 -68 q 125 0 117 -33 q 135 76 133 33 q 128 818 139 421 q 117 922 126 878 q 95 988 107 967 q 70 1023 83 1010 q 51 1038 57 1036 q 42 1040 44 1040 q 53 1043 46 1042 q 89 1049 61 1044 q 147 1055 117 1053 q 228 1056 178 1057 q 331 1050 278 1056 q 361 1046 347 1047 q 526 1002 449 1040 q 666 897 604 964 q 764 726 728 831 q 800 492 800 621 q 661 65 800 218 q 272 -99 522 -89 q 243 -99 257 -99 q 57 -97 146 -99 z "},"E":{"ha":600,"x_min":174,"x_max":807,"o":"m 206 0 q 212 7 208 1 q 222 51 215 13 q 229 150 229 89 q 225 480 232 246 q 217 794 218 714 q 205 924 215 872 q 183 988 194 975 l 174 1000 l 740 1000 l 747 851 q 743 858 746 854 q 729 872 740 861 q 703 890 718 882 q 663 903 689 897 q 606 910 636 910 l 378 914 l 382 576 q 551 597 497 578 q 632 656 606 617 l 635 478 q 385 531 589 525 l 390 90 q 607 90 507 89 q 692 99 654 90 q 750 118 729 107 q 785 141 771 129 q 803 161 799 153 l 807 169 q 790 90 801 132 q 769 24 778 49 l 761 -1 l 206 0 z "},"F":{"ha":571,"x_min":206,"x_max":776,"o":"m 231 0 q 238 6 233 1 q 249 48 242 11 q 258 147 257 85 q 258 781 263 429 q 244 912 257 857 q 218 983 231 967 l 206 1001 l 769 1000 l 776 847 q 772 853 775 849 q 758 867 769 857 q 733 885 747 876 q 692 899 718 893 q 635 906 665 906 l 408 910 l 414 572 q 581 593 528 574 q 661 651 635 613 l 664 474 q 415 526 618 522 l 414 108 q 442 0 415 15 l 231 0 z "},"G":{"ha":554,"x_min":93,"x_max":760,"o":"m 650 839 q 628 922 660 897 q 549 944 596 947 q 398 792 461 938 q 328 397 335 646 q 340 222 325 311 q 385 71 354 133 q 460 -40 419 0 q 539 -82 501 -79 q 614 -67 576 -85 q 663 76 663 -40 q 663 171 663 94 q 661 267 663 247 q 654 322 660 300 q 644 350 649 344 l 639 356 l 760 356 q 740 257 740 342 q 732 -42 740 15 q 724 -62 729 -56 q 719 -68 722 -65 q 501 -154 640 -175 q 406 -117 453 -147 q 328 -48 360 -86 q 276 24 296 -10 q 249 79 256 57 q 178 249 219 164 q 119 361 136 333 q 93 403 103 389 q 133 475 118 446 q 156 525 147 504 q 188 603 164 546 q 238 725 211 661 q 518 1026 338 965 q 604 1026 556 1039 q 688 971 653 1013 q 714 869 722 929 q 708 846 711 857 q 699 824 706 835 q 688 806 693 814 q 674 790 683 799 q 661 776 665 781 q 645 763 657 771 q 630 752 633 754 q 614 742 626 750 q 600 732 601 733 q 650 839 640 788 z "},"H":{"ha":647,"x_min":197,"x_max":854,"o":"m 204 0 q 213 10 207 3 q 227 55 218 18 q 239 143 236 92 q 239 885 244 261 q 235 935 239 913 q 224 969 231 957 q 212 988 218 981 q 201 999 206 996 l 197 1000 l 410 1000 q 406 999 408 1000 q 397 990 403 997 q 386 972 390 983 q 378 936 382 961 q 372 879 374 911 q 371 656 371 776 l 682 679 q 679 990 682 886 q 665 1067 678 1031 q 639 1118 651 1103 l 626 1133 l 853 1133 q 849 1132 851 1133 q 839 1122 846 1131 q 826 1098 832 1113 q 817 1053 821 1083 q 811 983 813 1024 q 814 65 804 236 q 854 -81 819 -46 l 646 -83 q 653 -73 649 -81 q 667 -24 658 -65 q 678 81 675 18 q 683 625 683 228 q 482 614 560 621 q 406 585 439 608 q 369 508 374 561 q 374 129 369 210 q 408 0 381 38 l 204 0 z "},"I":{"ha":472,"x_min":453,"x_max":678,"o":"m 453 -97 q 467 -73 458 -89 q 490 -6 475 -57 q 507 100 504 46 q 507 868 514 263 q 499 953 507 919 q 482 993 490 986 l 474 1000 l 676 1000 q 666 992 672 999 q 649 951 660 986 q 638 863 639 915 q 639 86 631 231 q 678 -31 644 -7 l 453 -97 z "},"J":{"ha":440,"x_min":32,"x_max":647,"o":"m 32 -35 q 44 -54 36 -42 q 79 -97 53 -67 q 133 -151 106 -128 q 203 -190 161 -174 q 286 -201 244 -207 q 344 -188 318 -197 q 399 -156 369 -179 q 448 -99 428 -133 q 481 -5 468 -64 q 493 132 493 54 q 489 487 493 221 q 479 886 485 753 q 467 949 478 919 q 444 990 456 978 l 433 1003 l 647 1003 q 637 992 643 999 q 622 952 631 985 q 613 875 613 919 q 614 115 619 257 q 614 111 614 113 q 583 -101 614 -10 q 497 -240 551 -192 q 374 -308 443 -289 q 228 -310 306 -326 q 72 -249 150 -294 l 32 -35 z "},"K":{"ha":786,"x_min":181,"x_max":992,"o":"m 221 1113 l 404 1111 q 400 954 400 1078 q 401 724 400 831 l 403 617 q 610 796 547 718 q 619 807 613 799 q 657 855 644 838 q 683 901 669 872 q 694 954 697 929 q 672 1004 690 979 l 829 1003 q 794 922 822 968 q 732 835 767 876 q 664 756 697 793 q 608 697 631 718 l 586 675 q 714 431 622 610 q 879 116 806 253 q 992 -74 953 -21 l 739 -78 q 763 -45 757 -65 q 763 1 769 -25 q 749 44 756 26 q 728 90 743 61 q 710 126 713 119 q 482 600 618 331 l 403 553 q 403 501 404 549 q 404 374 403 453 q 409 217 406 294 q 421 77 413 140 q 442 0 429 14 l 265 -1 q 278 65 274 13 q 285 176 283 118 q 285 305 286 233 q 284 404 285 376 q 283 447 283 432 l 182 368 q 181 417 174 393 q 203 464 189 442 q 235 503 218 486 q 264 531 253 521 q 276 540 275 540 q 274 675 274 590 q 273 822 274 760 q 268 951 272 885 q 252 1058 264 1017 q 221 1113 240 1100 z "},"L":{"ha":724,"x_min":199,"x_max":929,"o":"m 438 1000 q 396 903 407 960 q 383 678 385 846 q 383 -53 383 656 q 608 -104 494 -92 q 829 -89 750 -119 q 929 4 908 -58 q 928 -10 929 -1 q 923 -42 928 -18 q 910 -87 918 -65 q 883 -135 901 -108 q 842 -178 865 -161 q 662 -214 793 -212 q 425 -185 531 -215 q 199 -117 299 -153 q 212 -103 204 -111 q 233 -69 219 -94 q 247 -18 247 -43 q 250 337 249 57 q 253 737 251 617 q 244 912 254 857 q 208 1000 235 967 l 438 1000 z "},"M":{"ha":1154,"x_min":107,"x_max":1361,"o":"m 107 3 q 390 799 353 638 q 387 906 400 847 q 351 1000 374 965 l 521 1000 q 540 859 506 983 q 634 556 575 735 q 708 317 693 378 q 874 803 850 699 q 872 908 885 851 q 838 1000 858 964 l 1006 1000 q 1051 808 1013 949 q 1140 499 1090 668 q 1203 286 1190 331 q 1279 51 1225 203 q 1361 -137 1333 -101 l 1121 -137 q 1133 -103 1132 -128 q 1128 -40 1135 -78 q 1113 33 1121 -3 q 1094 117 1106 68 q 1076 193 1082 165 q 928 744 1026 439 q 764 219 775 281 q 756 157 758 181 q 758 133 756 144 q 763 121 760 129 q 831 1 785 61 l 589 1 q 594 24 592 10 q 599 89 596 39 q 592 189 603 139 q 535 436 572 299 q 471 658 499 574 l 443 740 q 279 215 288 276 q 274 135 275 169 q 285 67 272 100 q 329 1 299 33 l 107 3 z "},"N":{"ha":667,"x_min":74,"x_max":872,"o":"m 74 -171 q 151 -52 131 -128 q 174 172 172 24 q 160 840 179 539 q 145 922 158 882 q 121 981 132 961 l 108 1000 l 364 1001 q 345 954 347 985 q 352 890 343 924 q 382 792 361 856 q 488 583 408 714 q 635 356 568 451 q 703 264 703 261 q 704 371 703 304 q 707 585 706 438 q 707 814 708 733 q 694 938 707 892 q 651 1000 682 983 l 851 1000 q 821 933 829 993 q 811 747 813 874 q 815 250 808 500 q 834 28 818 118 q 872 -74 850 -62 l 650 -78 q 699 6 685 -43 q 701 69 714 54 q 531 309 640 154 q 342 576 421 464 l 264 689 q 267 558 265 638 q 271 320 268 479 q 274 103 274 161 q 131 -150 272 -76 q 74 -171 99 -167 z "},"O":{"ha":588,"x_min":81,"x_max":794,"o":"m 636 489 q 486 453 519 475 q 459 380 469 443 q 446 272 449 317 q 443 214 443 226 q 441 238 442 222 q 437 292 440 253 q 428 363 433 332 q 412 423 422 394 q 388 458 401 451 q 250 486 354 472 q 306 133 254 257 q 436 13 358 10 q 504 42 469 14 q 571 123 539 69 q 622 272 603 176 q 636 489 640 368 m 636 499 l 636 500 q 609 722 631 625 q 556 872 588 819 q 494 951 525 925 q 433 975 463 976 l 432 975 l 432 974 q 303 841 360 972 q 249 497 246 710 q 390 532 350 508 q 418 600 407 542 q 432 713 429 658 l 435 765 q 438 706 436 742 q 451 606 439 671 q 481 531 463 542 q 636 499 514 508 m 428 1019 q 621 951 535 1025 q 751 758 707 878 q 794 503 794 639 q 743 230 793 353 q 611 40 693 107 q 433 -28 529 -28 q 181 120 279 -26 q 81 492 82 267 q 127 752 81 629 q 255 949 174 875 q 428 1019 336 1022 m 334 603 q 339 607 334 603 q 355 611 343 611 q 375 603 367 611 q 383 583 383 594 q 375 562 383 571 q 355 553 367 553 q 334 562 343 553 q 325 583 325 571 q 334 603 325 594 m 492 610 q 496 614 492 610 q 513 618 500 618 q 533 610 525 618 q 542 590 542 601 q 533 569 542 578 q 513 560 525 560 q 492 569 500 560 q 483 590 483 578 q 492 610 483 601 m 338 428 q 342 433 338 428 q 358 438 346 438 q 379 428 371 438 q 388 408 388 419 q 379 388 388 396 q 358 379 371 379 q 338 388 346 379 q 329 408 329 396 q 338 428 329 419 m 498 426 q 502 431 498 426 q 519 435 507 435 q 539 426 531 435 q 547 406 547 418 q 539 385 547 393 q 519 376 531 376 q 498 385 507 376 q 489 406 489 393 q 498 426 489 418 z "},"P":{"ha":482,"x_min":86,"x_max":688,"o":"m 282 444 q 344 456 313 449 q 419 483 375 464 q 494 528 463 501 q 549 599 526 554 q 572 697 572 643 q 556 795 572 751 q 515 865 539 839 q 456 909 490 890 q 394 935 422 928 q 337 947 367 943 q 297 951 307 951 q 279 951 286 951 q 282 444 279 764 m 114 1 q 114 1 114 1 q 114 1 114 1 q 114 1 114 1 m 114 1 q 119 3 117 1 q 131 15 122 6 q 147 40 140 25 q 158 85 153 56 q 164 151 164 114 q 160 804 168 456 q 150 895 158 856 q 132 953 142 935 q 110 984 122 972 q 93 998 99 996 q 86 1000 88 1000 q 311 999 157 1004 q 450 978 386 996 q 568 925 514 960 q 654 832 622 890 q 688 696 686 774 q 673 594 690 640 q 631 521 656 549 q 572 472 606 493 q 514 440 538 450 q 467 425 490 431 q 283 399 378 400 q 286 119 285 250 q 298 51 288 81 q 315 13 308 21 q 325 3 321 6 l 114 1 z "},"Q":{"ha":717,"x_min":81,"x_max":924,"o":"m 636 499 l 636 500 q 609 722 631 625 q 556 872 588 819 q 494 951 525 925 q 433 975 463 976 l 432 975 l 432 974 q 303 841 360 972 q 249 497 246 710 q 390 532 350 508 q 418 600 407 542 q 432 713 429 658 l 435 765 q 438 706 436 742 q 451 606 439 671 q 481 531 463 542 q 636 499 514 508 m 682 117 q 724 60 693 103 q 775 3 756 18 q 924 -11 833 -37 q 917 -17 921 -14 q 902 -33 914 -21 q 878 -53 890 -44 q 849 -73 867 -61 q 813 -89 831 -85 q 774 -96 796 -93 q 732 -90 751 -99 q 706 -81 718 -86 q 681 -65 693 -75 q 662 -50 669 -56 q 642 -30 654 -44 q 626 -12 629 -15 q 610 9 624 -8 q 594 28 596 26 q 433 -28 518 -28 q 181 120 279 -26 q 81 492 82 267 q 127 752 81 629 q 255 949 174 875 q 428 1019 336 1022 q 621 951 535 1025 q 751 758 707 878 q 794 503 794 639 q 682 117 793 272 m 334 603 q 339 607 334 603 q 355 611 343 611 q 375 603 367 611 q 383 583 383 594 q 375 562 383 571 q 355 553 367 553 q 334 562 343 553 q 325 583 325 571 q 334 603 325 594 m 492 610 q 496 614 492 610 q 513 618 500 618 q 533 610 525 618 q 542 590 542 601 q 533 569 542 578 q 513 560 525 560 q 492 569 500 560 q 483 590 483 578 q 492 610 483 601 m 338 428 q 342 433 338 428 q 358 438 346 438 q 379 428 371 438 q 388 408 388 419 q 379 388 388 396 q 358 379 371 379 q 338 388 346 379 q 329 408 329 396 q 338 428 329 419 m 498 426 q 502 431 498 426 q 519 435 507 435 q 539 426 531 435 q 547 406 547 418 q 539 385 547 393 q 519 376 531 376 q 498 385 507 376 q 489 406 489 393 q 498 426 489 418 m 371 110 q 371 110 371 110 q 371 110 371 110 m 371 110 q 382 120 375 114 q 410 142 389 126 q 451 169 431 158 q 503 186 472 179 q 563 188 535 193 q 596 179 581 185 q 636 489 642 304 q 486 453 519 475 q 459 380 469 443 q 446 272 449 317 q 443 214 443 226 q 441 238 442 222 q 437 292 440 253 q 428 363 433 332 q 412 423 422 394 q 388 458 401 451 q 250 486 354 472 q 306 133 254 257 q 436 13 358 10 q 543 81 492 14 q 538 85 540 82 q 467 109 508 103 q 397 114 425 115 q 371 110 374 111 z "},"R":{"ha":681,"x_min":201,"x_max":886,"o":"m 400 443 q 463 456 432 449 q 538 483 494 464 q 614 528 582 501 q 669 599 646 554 q 690 697 692 643 q 667 813 689 764 q 615 887 644 861 q 542 928 585 913 q 467 947 499 943 q 399 951 436 950 q 400 443 399 694 m 239 0 q 243 3 240 1 q 253 15 246 6 q 265 40 260 25 q 276 83 271 54 q 281 150 281 113 q 275 804 285 454 q 266 896 274 857 q 247 954 258 935 q 226 985 236 974 q 208 999 217 996 l 201 1000 q 428 1000 274 1001 q 722 922 625 997 q 818 696 818 846 q 798 594 818 642 q 749 519 778 547 q 690 470 719 490 q 642 442 661 450 l 621 433 q 640 380 628 414 q 688 257 653 346 q 756 99 724 168 q 825 -33 788 29 q 886 -107 863 -96 l 683 -108 q 524 372 717 -71 l 510 404 q 400 399 463 399 q 403 118 401 222 q 414 49 404 79 q 429 12 424 19 q 439 0 435 4 l 239 0 z "},"S":{"ha":447,"x_min":158,"x_max":651,"o":"m 158 111 q 172 85 164 101 q 208 28 181 68 q 262 -42 235 -12 q 328 -94 289 -72 q 404 -111 368 -117 q 482 -69 453 -104 q 515 20 511 -35 q 504 140 519 75 q 447 280 489 206 q 342 422 404 354 q 220 600 261 511 q 176 753 179 689 q 191 877 172 817 q 231 969 210 938 q 276 1025 251 1001 q 347 1076 308 1058 q 417 1092 386 1093 q 476 1087 449 1092 q 518 1075 503 1082 l 533 1068 q 574 896 532 1067 q 494 981 538 954 q 413 1000 450 1007 q 344 968 375 993 q 296 900 313 943 q 283 810 279 857 q 324 690 289 753 q 409 567 360 626 q 509 447 458 508 q 600 307 560 385 q 651 151 640 229 q 643 27 660 89 q 592 -83 626 -35 q 508 -160 558 -131 q 401 -192 457 -189 q 283 -163 346 -196 q 167 -60 221 -131 l 158 111 z "},"T":{"ha":746,"x_min":42,"x_max":951,"o":"m 626 0 l 443 0 q 470 60 465 24 q 476 204 475 97 q 475 440 476 288 q 472 703 474 592 l 471 814 q 207 753 303 760 q 140 762 171 750 q 92 790 110 774 q 63 827 75 806 q 47 857 50 849 q 42 871 43 865 q 119 855 74 857 q 205 858 164 853 q 285 874 246 863 q 413 909 318 882 q 566 951 508 936 q 701 979 624 965 q 831 989 778 993 q 914 963 885 985 q 951 901 944 939 q 947 836 957 863 l 939 810 q 790 881 915 885 q 699 870 749 879 q 621 854 650 861 l 592 846 l 590 260 q 597 74 590 118 q 626 0 604 31 z "},"U":{"ha":725,"x_min":199,"x_max":931,"o":"m 199 832 l 421 832 q 383 700 400 790 q 371 606 375 654 q 367 497 367 558 q 369 401 368 436 q 376 285 371 367 q 382 175 381 203 q 447 -16 389 44 q 585 -79 504 -76 q 725 0 671 -81 q 785 192 779 81 q 783 502 789 297 q 767 833 776 707 q 750 934 763 892 q 728 988 738 976 l 717 1000 l 931 1000 q 901 917 913 979 q 885 771 889 854 q 880 590 882 688 q 879 401 878 492 q 879 233 881 311 q 851 53 878 129 q 781 -65 825 -24 q 686 -126 736 -107 q 578 -144 636 -144 q 340 -62 415 -146 q 253 214 264 21 q 246 361 251 254 q 237 519 240 468 q 228 645 233 571 q 215 764 222 719 q 199 832 207 808 z "},"V":{"ha":714,"x_min":142,"x_max":921,"o":"m 921 861 q 635 69 671 231 q 633 -35 622 22 q 665 -125 644 -92 l 503 -124 q 455 88 496 -72 q 355 462 414 247 q 290 696 296 676 q 265 783 279 743 q 239 849 250 824 q 211 901 228 874 q 188 940 194 929 q 163 974 181 951 q 142 1001 144 996 l 433 1001 q 428 999 432 1001 q 417 990 425 997 q 405 968 408 982 q 399 931 401 954 q 403 874 396 907 q 467 578 422 764 q 546 260 511 392 l 581 129 q 747 651 739 589 q 754 733 754 704 q 742 797 754 761 q 699 863 731 832 l 921 861 z "},"W":{"ha":1013,"x_min":74,"x_max":1218,"o":"m 1218 1000 q 1074 619 1185 957 q 935 150 964 281 q 937 54 925 107 q 968 -31 949 1 l 817 -31 q 676 500 808 38 q 510 28 533 131 q 519 -126 486 -72 l 385 -126 q 346 40 378 -81 q 272 307 314 160 q 219 493 229 454 q 148 727 192 597 q 74 879 104 857 l 314 882 q 312 874 314 879 q 305 853 310 869 q 298 818 300 836 q 296 772 296 800 q 301 714 296 743 q 358 458 318 615 q 431 190 399 300 l 463 82 q 611 550 604 496 q 592 774 625 663 q 543 867 565 838 l 761 865 q 756 847 758 858 q 751 794 754 835 q 754 711 747 753 q 757 710 756 710 q 756 704 757 708 q 757 697 757 701 q 806 475 774 599 q 863 278 839 351 l 886 203 q 1069 797 1056 743 q 1085 894 1085 860 q 1078 948 1086 929 q 1043 1000 1069 967 l 1218 1000 z "},"X":{"ha":675,"x_min":58,"x_max":881,"o":"m 869 0 l 601 0 q 483 329 644 57 q 288 -18 318 49 q 268 -93 268 -62 q 285 -151 268 -124 l 58 -150 q 436 406 118 -124 q 413 446 428 421 q 393 476 397 471 q 71 846 215 767 l 375 851 q 358 815 360 836 q 367 763 356 793 q 389 713 379 733 q 422 653 399 692 q 453 601 444 615 q 501 515 474 563 q 635 746 615 707 q 663 808 650 776 q 685 877 675 839 q 692 949 694 915 q 671 1000 689 982 l 881 1000 q 547 439 707 711 q 735 154 643 283 q 869 0 828 25 z "},"Y":{"ha":618,"x_min":165,"x_max":824,"o":"m 396 0 q 433 56 424 28 q 442 132 442 83 q 438 436 443 218 q 253 872 319 715 q 214 946 236 914 q 179 989 192 978 l 165 1001 l 404 1000 q 363 954 365 986 q 382 876 361 922 l 515 539 q 664 932 626 828 q 663 972 671 954 q 644 994 656 989 l 633 1001 l 824 1001 q 807 985 818 996 q 767 927 796 974 q 714 818 738 881 l 569 440 q 571 132 569 228 q 583 55 572 83 q 619 1 593 26 l 396 0 z "},"Z":{"ha":792,"x_min":393,"x_max":997,"o":"m 417 814 l 524 1001 l 950 1000 l 575 114 q 610 110 588 113 q 692 108 632 108 q 804 113 753 107 q 912 136 856 118 q 997 183 968 154 l 910 1 l 393 1 l 754 881 q 726 881 743 881 q 660 878 708 881 q 572 870 613 876 q 486 849 531 864 q 417 814 442 835 z "},"a":{"ha":532,"x_min":157,"x_max":739,"o":"m 482 271 l 408 553 l 319 261 l 482 271 m 157 0 q 368 597 340 476 q 365 676 375 632 q 338 747 354 721 l 465 749 q 500 604 471 710 q 567 371 529 499 q 614 210 606 243 q 674 30 631 149 q 739 -115 718 -89 l 553 -118 q 557 -73 556 -101 q 549 16 558 -44 q 521 140 540 76 q 492 236 507 183 q 365 228 415 233 q 315 208 339 225 q 286 158 290 190 q 283 73 276 113 q 324 0 290 33 l 157 0 z "},"b":{"ha":488,"x_min":174,"x_max":694,"o":"m 351 354 q 353 44 351 154 q 361 -7 354 17 q 536 32 475 -8 q 594 167 597 72 q 578 247 593 213 q 540 299 563 281 q 491 332 518 318 q 438 349 464 346 q 388 354 411 351 q 351 354 365 357 m 351 418 q 401 424 376 419 q 459 440 425 428 q 517 469 493 451 q 560 517 542 486 q 578 588 578 547 q 565 663 579 631 q 528 712 550 694 q 473 740 506 729 q 413 753 440 750 q 351 756 385 756 q 351 418 351 597 m 186 -60 q 192 -58 188 -60 q 206 -47 196 -56 q 223 -24 215 -37 q 237 14 231 -11 q 244 71 243 39 q 239 632 247 332 q 231 710 239 676 q 215 760 224 744 q 197 786 206 776 q 181 799 188 796 l 174 800 q 194 803 181 801 q 261 808 208 806 q 378 808 314 810 q 591 747 507 806 q 675 578 675 689 q 634 466 674 514 q 526 390 594 418 q 649 311 603 364 q 694 183 694 258 q 615 8 693 74 q 390 -61 538 -58 l 392 -62 l 186 -60 z "},"c":{"ha":563,"x_min":213,"x_max":768,"o":"m 629 538 q 634 552 632 543 q 638 585 636 561 q 637 628 640 610 q 617 665 633 647 q 571 686 600 682 q 503 669 538 690 q 438 607 468 649 q 389 492 407 565 q 375 329 371 419 q 441 138 379 225 q 582 39 503 50 q 667 48 621 33 q 741 79 714 63 q 768 97 768 96 q 696 25 758 56 q 606 -2 649 3 q 507 1 563 -7 q 372 54 428 10 q 304 133 315 99 q 266 223 289 182 q 228 279 243 264 l 213 296 q 250 357 244 328 q 262 432 256 386 q 300 533 268 478 q 396 660 344 613 q 538 731 447 707 q 610 730 569 739 q 678 694 650 721 q 700 628 707 667 q 629 538 688 567 z "},"d":{"ha":476,"x_min":119,"x_max":683,"o":"m 293 747 q 296 33 292 257 q 303 -15 296 10 q 404 8 358 -12 q 489 69 450 29 q 550 179 528 110 q 574 340 572 249 q 560 483 574 419 q 524 588 546 547 q 471 660 501 629 q 414 708 440 692 q 358 733 388 724 q 316 745 329 743 q 293 747 303 747 m 131 -68 q 137 -66 133 -68 q 150 -55 140 -64 q 167 -33 160 -46 q 181 4 175 -21 q 189 61 188 29 q 183 613 192 317 q 175 690 182 657 q 159 738 168 722 q 141 764 150 754 q 126 775 132 774 l 119 778 q 144 782 128 779 q 216 789 160 785 q 333 785 272 793 q 357 782 346 783 q 480 749 422 778 q 583 672 538 721 q 656 544 629 622 q 683 369 683 465 q 579 52 682 167 q 292 -69 476 -62 q 269 -68 279 -69 l 131 -68 z "},"e":{"ha":410,"x_min":174,"x_max":617,"o":"m 190 1 q 197 6 193 1 q 206 35 200 10 q 213 104 213 61 q 209 333 214 171 q 204 553 204 496 q 195 642 203 606 q 181 686 188 678 l 174 696 l 569 696 l 575 592 q 566 603 572 596 q 535 621 560 610 q 475 632 510 632 l 317 636 l 319 400 q 438 415 400 401 q 493 456 475 428 l 496 332 q 321 368 464 365 l 325 63 q 476 63 407 63 q 535 68 510 63 q 576 82 561 74 q 600 98 590 90 q 613 111 610 106 l 617 117 q 604 63 613 92 q 590 17 596 33 l 585 -1 l 190 1 z "},"f":{"ha":400,"x_min":206,"x_max":607,"o":"m 222 1 q 242 103 240 7 q 242 544 244 299 q 233 635 242 597 q 214 683 224 672 l 206 694 l 601 694 l 607 590 q 598 601 604 594 q 567 619 592 608 q 507 632 542 631 l 347 635 l 351 399 q 469 413 431 400 q 525 454 507 426 l 528 331 q 353 367 494 364 q 351 76 351 169 q 353 58 351 67 q 358 42 356 49 q 365 28 361 35 q 372 16 368 21 q 378 8 375 11 q 383 3 381 4 l 385 1 l 222 1 z "},"g":{"ha":554,"x_min":213,"x_max":760,"o":"m 663 78 q 661 267 665 168 q 654 322 660 300 q 644 350 649 344 l 639 356 l 760 356 q 754 350 758 354 q 744 322 750 346 q 738 260 738 297 q 731 68 738 150 q 715 36 729 47 q 696 25 713 33 q 606 -3 649 1 q 507 0 564 -8 q 372 54 428 10 q 304 133 315 99 q 289 176 297 156 q 272 213 281 197 q 254 243 263 229 q 238 266 246 257 q 225 282 231 275 q 217 292 219 289 q 213 294 214 294 q 250 356 244 326 q 262 432 256 386 q 300 533 268 478 q 396 660 344 613 q 538 731 447 707 q 610 730 569 739 q 679 694 650 721 q 700 628 708 667 q 631 538 688 567 q 634 552 632 543 q 638 585 636 561 q 637 628 640 610 q 617 665 633 647 q 571 686 600 682 q 503 669 538 690 q 438 607 468 649 q 389 492 407 565 q 375 328 371 419 q 442 137 379 224 q 582 38 504 50 q 635 38 608 35 l 636 38 q 655 49 649 40 q 663 78 661 57 m 213 294 q 213 294 213 294 q 213 294 213 294 z "},"h":{"ha":565,"x_min":278,"x_max":771,"o":"m 290 0 q 315 92 311 11 q 320 336 319 156 q 317 611 321 517 q 306 654 315 633 q 286 685 296 675 l 278 694 l 461 694 q 453 690 458 693 q 442 665 449 688 q 433 607 435 643 q 432 451 432 535 l 618 464 q 614 689 617 614 q 601 743 613 718 q 578 779 589 768 l 567 789 l 771 789 q 767 788 769 789 q 759 781 765 788 q 748 765 753 775 q 739 733 743 754 q 735 685 735 713 q 736 42 728 161 q 768 -60 742 -37 l 585 -62 q 592 -56 588 -61 q 603 -21 596 -50 q 614 53 611 8 q 618 428 618 153 q 507 421 551 425 q 431 365 446 414 q 435 82 431 142 q 465 0 440 18 l 290 0 z "},"i":{"ha":600,"x_min":304,"x_max":806,"o":"m 304 999 q 501 1039 446 1006 q 530 1107 518 1049 q 544 1218 542 1165 l 547 1272 q 549 1213 547 1249 q 563 1113 551 1178 q 592 1038 574 1049 q 666 1015 613 1024 q 763 1003 719 1006 l 806 1001 q 597 960 644 989 q 570 890 581 950 q 557 775 560 831 l 554 719 q 553 744 554 729 q 549 799 553 760 q 539 869 544 838 q 523 929 533 900 q 499 964 513 958 q 430 982 478 974 q 343 994 382 990 l 304 999 m 612 1111 q 616 1115 612 1111 q 633 1119 621 1119 q 653 1111 644 1119 q 661 1090 661 1103 q 653 1069 661 1078 q 633 1061 644 1061 q 612 1069 621 1061 q 603 1090 603 1078 q 612 1111 603 1103 m 618 926 q 622 930 618 926 q 638 935 626 935 q 659 926 650 935 q 668 905 668 917 q 659 885 668 893 q 638 876 650 876 q 618 885 626 876 q 610 905 610 893 q 618 926 610 917 m 437 1115 q 441 1119 437 1115 q 458 1124 446 1124 q 478 1115 469 1124 q 486 1094 486 1107 q 478 1074 486 1082 q 458 1065 469 1065 q 437 1074 446 1065 q 428 1094 428 1082 q 437 1115 428 1107 m 447 935 q 451 939 447 935 q 467 943 456 943 q 488 935 479 943 q 497 914 497 926 q 488 893 497 901 q 467 885 479 885 q 447 893 456 885 q 439 914 439 901 q 447 935 439 926 m 457 0 q 466 6 461 1 q 481 33 471 10 q 492 92 490 56 q 497 338 496 157 q 493 613 497 518 q 485 656 492 635 q 471 685 478 676 l 464 694 l 644 694 q 641 692 643 693 q 633 687 639 692 q 622 674 626 682 q 613 649 617 665 q 610 608 610 632 q 610 83 603 181 q 640 0 615 18 l 457 0 z "},"j":{"ha":426,"x_min":138,"x_max":632,"o":"m 138 -40 q 147 -56 140 -46 q 175 -90 154 -65 q 218 -132 196 -114 q 273 -163 240 -150 q 338 -172 306 -176 q 392 -158 369 -168 q 437 -121 415 -147 q 469 -43 458 -94 q 481 85 481 8 q 481 92 481 88 q 481 611 485 524 q 468 656 479 635 q 446 685 457 676 l 435 694 l 632 693 q 628 692 631 693 q 621 687 626 692 q 610 674 615 682 q 601 648 606 665 q 597 608 597 631 q 599 339 597 574 q 597 78 600 104 l 597 76 q 572 -92 597 -19 q 505 -203 547 -164 q 408 -256 463 -242 q 292 -258 354 -271 q 169 -210 231 -246 l 138 -40 z "},"k":{"ha":688,"x_min":240,"x_max":893,"o":"m 247 904 l 407 904 q 405 838 404 882 q 408 735 406 794 q 412 624 410 675 q 417 535 414 572 l 418 499 q 454 520 432 507 q 523 569 476 533 q 590 633 569 604 q 614 682 608 656 q 617 724 619 708 l 613 738 l 768 740 q 703 671 754 719 q 610 583 653 622 l 565 546 q 669 349 594 493 q 803 95 743 206 q 893 -58 863 -15 l 689 -61 q 709 -35 704 -51 q 708 1 714 -19 q 697 37 703 22 q 680 75 692 51 q 665 103 668 99 q 586 272 632 176 q 511 426 540 368 l 482 485 l 411 439 q 412 396 411 422 q 415 299 413 369 q 421 172 417 228 q 433 65 425 117 q 450 1 440 13 l 307 0 q 322 363 322 25 l 240 299 q 250 363 231 328 q 292 417 269 397 q 315 438 314 438 q 314 514 315 463 q 311 599 313 565 q 307 681 310 633 q 300 761 304 729 q 289 826 296 793 q 272 878 282 858 q 247 904 261 897 z "},"l":{"ha":410,"x_min":182,"x_max":617,"o":"m 188 0 q 194 6 190 1 q 206 35 199 10 q 213 104 213 61 q 209 335 214 172 q 204 556 204 499 q 197 644 203 608 q 188 686 192 679 l 182 694 l 340 694 q 334 685 338 692 q 324 646 331 679 q 318 563 318 613 q 325 63 319 383 q 476 63 407 63 q 535 69 510 63 q 576 83 561 75 q 600 99 590 90 q 613 112 610 107 q 617 118 617 117 q 604 63 613 93 q 590 17 596 33 l 585 -1 l 188 0 z "},"m":{"ha":960,"x_min":235,"x_max":1165,"o":"m 235 1 q 439 599 411 478 q 437 679 447 635 q 410 750 426 724 l 536 750 q 549 651 525 739 q 622 410 572 563 q 678 236 671 257 q 801 601 783 524 q 799 682 810 638 q 772 753 789 726 l 900 754 q 933 610 904 715 q 1001 376 963 504 q 1047 214 1039 247 q 1105 38 1064 151 q 1165 -103 1146 -75 l 986 -103 q 996 -77 994 -96 q 992 -30 997 -58 q 981 25 988 -1 q 966 88 975 51 q 953 144 957 124 q 842 558 915 329 q 719 164 725 211 q 715 117 715 132 q 769 1 746 33 l 588 1 q 592 18 590 7 q 596 67 593 29 q 590 142 599 104 q 548 326 575 224 q 500 493 521 429 l 479 554 q 357 161 363 208 q 352 131 356 153 q 348 100 349 108 q 347 75 347 92 q 351 49 347 58 q 362 26 354 39 q 382 0 369 13 l 235 1 z "},"n":{"ha":504,"x_min":179,"x_max":711,"o":"m 351 -135 l 211 -128 q 236 126 239 -97 q 221 585 232 421 q 209 640 219 613 q 189 681 199 668 l 179 694 l 347 694 q 337 642 328 675 q 383 551 346 608 q 467 438 411 510 q 564 314 522 365 l 607 263 q 608 335 607 290 q 612 481 610 381 q 614 639 614 582 q 576 838 611 819 l 711 835 q 704 828 707 833 q 699 814 701 824 q 696 794 697 804 q 693 767 694 783 q 691 736 692 750 q 690 701 690 722 q 690 666 690 681 q 689 628 689 651 q 689 592 689 606 q 687 469 689 561 q 684 313 685 376 q 684 173 683 249 q 689 53 685 97 q 700 0 693 8 l 624 0 q 608 42 625 11 q 581 86 590 74 l 317 419 l 319 88 q 351 -135 318 -72 z "},"o":{"ha":410,"x_min":69,"x_max":615,"o":"m 339 711 l 338 711 q 238 608 282 710 q 197 344 194 507 q 241 69 201 165 q 340 -25 281 -28 q 394 -2 367 -24 q 445 62 421 19 q 483 179 469 104 q 494 349 497 254 q 474 519 490 444 q 433 633 457 593 q 385 693 410 674 q 339 713 361 713 l 339 711 m 335 746 l 335 747 q 482 694 417 751 q 581 546 547 638 q 615 351 615 454 q 533 60 615 178 q 339 -56 451 -57 q 145 58 221 -54 q 69 343 69 169 q 104 541 68 447 q 202 692 140 635 q 335 746 264 749 z "},"p":{"ha":485,"x_min":179,"x_max":690,"o":"m 338 383 q 392 394 365 388 q 456 417 418 400 q 522 456 494 433 q 570 517 550 478 q 590 603 590 556 q 576 688 590 650 q 540 747 563 725 q 490 785 517 769 q 435 808 463 801 q 386 819 408 815 q 350 822 364 822 l 336 822 q 338 383 335 661 m 196 0 q 200 1 197 0 q 210 12 203 3 q 222 34 217 21 q 231 72 226 47 q 236 131 236 97 q 232 694 239 393 q 225 774 231 740 q 212 823 219 807 q 197 848 204 839 q 185 858 189 857 l 179 860 q 197 861 185 860 q 256 865 210 863 q 364 863 303 867 q 485 845 429 861 q 587 799 540 829 q 661 719 633 769 q 690 601 689 668 q 677 514 692 554 q 641 450 663 474 q 590 407 619 426 q 540 380 560 388 q 499 367 519 372 q 339 344 421 346 q 342 103 340 215 q 351 43 343 69 q 365 10 360 17 q 374 0 371 3 l 196 0 z "},"q":{"ha":583,"x_min":149,"x_max":789,"o":"m 606 60 q 638 17 614 50 q 676 -26 661 -15 q 724 -44 696 -42 q 771 -42 753 -47 l 789 -37 q 785 -42 788 -39 q 774 -53 782 -44 q 756 -69 765 -62 q 733 -84 747 -75 q 706 -97 718 -93 q 676 -102 693 -100 q 644 -97 658 -104 q 624 -90 633 -94 q 606 -78 615 -86 q 590 -67 596 -71 q 575 -51 585 -62 q 563 -38 565 -40 q 551 -22 561 -36 q 539 -8 540 -8 q 417 -50 481 -50 q 224 63 299 -49 q 149 346 149 175 q 183 544 147 450 q 281 694 219 638 q 413 747 343 750 q 559 696 494 753 q 658 548 624 639 q 692 354 692 457 q 606 60 690 178 m 369 56 q 390 74 376 63 q 442 103 404 86 q 515 114 481 119 q 540 107 528 111 q 571 351 576 206 q 550 521 567 447 q 510 635 533 594 q 462 694 486 675 q 417 714 438 714 q 415 714 415 714 l 415 713 q 317 610 360 711 q 276 347 274 510 q 319 74 279 169 q 418 -19 358 -22 q 500 32 461 -18 q 496 35 497 33 q 442 54 474 50 q 389 57 410 58 l 369 56 z "},"r":{"ha":579,"x_min":199,"x_max":786,"o":"m 367 385 q 420 395 393 389 q 485 418 447 401 q 550 457 522 435 q 597 517 578 479 q 617 603 617 556 q 603 687 617 650 q 567 746 589 724 q 517 784 544 768 q 464 807 490 800 q 415 817 438 814 q 378 821 392 821 l 365 821 q 367 385 364 660 m 217 0 q 222 2 218 0 q 233 14 225 4 q 248 37 242 24 q 260 76 254 50 q 265 133 265 101 q 261 694 269 394 q 253 773 260 739 q 237 823 246 807 q 219 849 228 839 q 204 860 210 858 l 199 861 q 392 861 260 867 q 512 843 457 858 q 613 798 567 828 q 687 718 660 768 q 717 601 714 668 q 702 514 718 554 q 663 449 686 474 q 615 408 639 425 q 575 383 592 390 l 557 376 q 574 331 564 360 q 615 225 585 301 q 673 89 646 149 q 733 -24 700 29 q 786 -87 765 -78 l 611 -87 q 463 351 643 -53 q 368 346 421 347 q 371 106 369 219 q 382 46 371 74 q 399 10 393 18 q 408 0 404 3 l 217 0 z "},"s":{"ha":381,"x_min":158,"x_max":586,"o":"m 158 103 q 167 88 161 97 q 192 53 172 78 q 231 11 211 29 q 281 -20 251 -7 q 340 -29 311 -33 q 413 -4 381 -24 q 460 49 444 15 q 472 124 476 82 q 433 219 468 165 q 331 326 397 272 q 224 448 260 386 q 184 556 188 510 q 195 645 181 603 q 229 712 210 688 q 268 750 249 736 q 356 784 304 776 q 443 786 408 792 l 476 781 l 510 658 q 433 724 474 710 q 364 722 393 739 q 318 667 335 704 q 306 589 301 631 q 340 509 311 550 q 408 431 369 468 q 487 353 447 393 q 555 260 526 313 q 586 151 583 207 q 567 47 589 97 q 503 -40 544 -4 q 411 -95 463 -75 q 300 -108 360 -115 q 186 -67 240 -101 l 158 103 z "},"t":{"ha":790,"x_min":100,"x_max":997,"o":"m 424 0 q 452 74 446 31 q 460 260 458 118 q 459 491 460 344 q 458 742 458 638 l 457 844 q 263 881 354 878 q 117 808 139 885 q 111 819 114 813 q 104 842 108 825 q 100 876 100 860 q 109 913 100 893 q 136 947 118 933 q 224 982 172 975 q 344 976 276 989 q 469 946 413 963 q 607 903 526 929 q 731 867 688 878 q 997 851 918 817 q 991 838 994 846 q 972 812 988 831 q 939 779 957 793 q 890 755 921 765 q 822 747 858 744 q 718 767 779 750 q 615 799 657 783 l 575 814 q 572 694 574 768 q 568 460 571 621 q 567 215 565 299 q 578 74 568 121 q 613 0 589 26 l 424 0 z "},"u":{"ha":619,"x_min":281,"x_max":826,"o":"m 281 694 l 450 694 q 422 589 435 660 q 412 514 415 551 q 409 428 408 476 q 411 351 410 379 q 416 259 413 324 q 421 172 419 194 q 472 22 426 69 q 581 -28 517 -26 q 692 33 650 -31 q 739 186 735 97 q 732 611 744 308 q 723 657 731 636 q 707 686 715 678 l 700 694 l 826 693 q 810 601 813 669 q 812 407 808 532 q 814 219 815 282 q 793 76 814 136 q 737 -17 772 15 q 662 -65 701 -50 q 576 -81 622 -81 q 387 -15 446 -81 q 318 204 328 51 q 311 351 315 256 q 304 501 307 446 q 296 615 301 557 q 281 694 290 672 z "},"v":{"ha":571,"x_min":154,"x_max":776,"o":"m 776 694 q 549 67 579 194 q 551 -18 540 29 q 579 -93 563 -65 l 444 -93 q 408 74 440 -53 q 327 378 375 201 q 276 564 279 556 q 253 643 265 608 q 224 706 240 678 q 201 747 208 735 q 174 783 193 758 q 154 810 154 808 l 403 810 q 397 808 400 810 q 385 800 394 807 q 372 782 376 793 q 364 751 368 771 q 365 704 360 732 q 416 470 381 618 q 479 218 451 322 l 507 114 q 639 528 632 479 q 644 618 650 576 q 604 694 639 660 l 776 694 z "},"w":{"ha":858,"x_min":133,"x_max":1065,"o":"m 1065 693 q 857 94 885 215 q 858 15 849 60 q 885 -57 868 -31 l 758 -57 q 747 44 769 -44 q 675 285 724 132 q 621 460 626 438 q 493 94 513 172 q 495 14 485 58 q 522 -57 506 -31 l 394 -57 q 362 87 390 -19 q 297 322 333 193 q 250 483 260 450 q 194 660 233 546 q 133 800 154 774 l 313 800 q 304 774 306 793 q 308 727 303 756 q 318 672 313 699 q 333 609 324 646 q 346 551 342 572 q 454 139 382 368 q 572 504 547 411 q 569 615 586 567 q 529 694 547 671 l 711 693 q 708 676 710 688 q 703 628 706 665 q 708 553 700 590 q 749 367 722 471 q 796 201 776 264 l 817 139 q 942 532 936 486 q 945 619 951 578 q 906 694 939 660 l 1065 693 z "},"x":{"ha":586,"x_min":125,"x_max":792,"o":"m 792 1 l 563 0 q 457 293 600 49 q 350 124 372 169 q 358 0 324 65 l 125 0 q 419 354 181 24 q 396 393 411 368 q 132 696 250 631 l 376 694 q 364 665 365 682 q 372 625 363 647 q 391 584 381 603 q 419 538 401 565 q 444 494 436 510 q 476 436 458 469 q 543 536 535 518 q 563 578 558 565 q 575 614 568 590 q 577 657 582 638 q 558 696 572 676 l 750 696 q 514 375 625 532 q 675 135 593 247 q 792 1 757 22 z "},"y":{"ha":549,"x_min":290,"x_max":756,"o":"m 447 -1 q 469 37 465 17 q 474 97 474 57 l 474 306 q 353 606 400 496 q 325 656 340 633 q 300 688 310 679 l 290 694 l 460 694 q 444 686 450 690 q 438 677 439 682 q 438 665 436 672 q 442 651 439 657 q 450 633 444 646 q 458 614 456 621 l 539 406 q 635 649 614 586 q 637 676 640 667 q 626 690 633 686 l 621 694 l 756 694 q 744 684 751 692 q 715 644 736 676 q 678 568 694 611 l 579 308 l 578 90 q 585 37 578 57 q 611 0 592 17 l 447 -1 z "},"z":{"ha":608,"x_min":393,"x_max":815,"o":"m 410 569 l 481 697 l 782 699 l 521 81 q 544 78 529 79 q 602 76 560 76 q 681 78 644 75 q 756 95 717 82 q 815 129 794 108 l 754 1 l 393 1 l 644 615 q 594 616 625 617 q 500 604 564 615 q 410 569 436 593 z "},"à":{"ha":503,"x_min":139,"x_max":708,"o":"m 479 281 l 400 574 l 308 272 l 479 281 m 139 0 q 357 619 329 493 q 354 702 365 656 q 326 775 343 749 l 458 776 q 522 431 447 729 q 638 13 597 132 q 708 -112 664 -64 l 533 -119 q 539 -106 536 -115 q 547 -62 542 -96 q 542 11 551 -29 q 489 246 526 97 q 356 238 407 243 q 301 217 326 235 q 272 165 276 199 q 270 76 264 117 q 311 0 276 35 l 139 0 z "},"á":{"ha":499,"x_min":135,"x_max":704,"o":"m 472 292 l 396 574 q 306 296 342 415 q 343 314 325 303 q 374 382 361 324 q 390 493 386 440 l 394 546 q 395 487 394 522 q 406 387 396 451 q 435 310 417 322 q 472 292 450 299 m 135 0 q 353 619 325 493 q 351 702 361 656 q 322 775 340 749 l 454 776 q 518 431 443 729 q 633 13 593 132 q 704 -112 660 -64 l 529 -119 q 535 -106 532 -115 q 542 -62 538 -96 q 538 11 547 -29 q 482 256 521 100 q 438 233 457 244 q 409 161 421 224 q 394 51 397 99 q 390 -6 390 4 q 389 18 389 3 q 386 73 389 33 q 378 144 383 113 q 363 204 374 175 q 339 240 353 233 q 294 260 319 250 q 269 165 271 183 q 266 76 260 117 q 307 0 272 35 l 135 0 z "},"ò":{"ha":443,"x_min":103,"x_max":649,"o":"m 232 328 q 277 69 238 160 q 374 -19 317 -22 q 481 72 431 -18 q 528 331 531 161 q 425 301 451 318 q 398 228 408 292 q 385 120 388 165 q 382 61 382 75 q 381 86 382 71 q 376 140 381 101 q 367 210 372 179 q 351 271 361 242 q 326 306 340 300 q 232 328 301 318 m 372 717 l 371 717 q 272 615 315 715 q 231 351 228 514 q 329 381 299 363 q 358 449 346 390 q 372 560 369 507 l 375 614 q 377 555 375 590 q 390 455 379 519 q 419 379 401 390 q 528 351 446 361 q 528 354 528 353 q 507 524 524 450 q 467 639 490 599 q 419 699 443 679 q 372 718 394 718 l 372 717 m 368 751 l 368 753 q 515 700 450 757 q 615 551 581 643 q 649 357 649 460 q 567 66 649 183 q 372 -50 485 -51 q 178 63 254 -49 q 103 349 103 175 q 138 547 101 453 q 235 697 174 640 q 368 751 297 754 m 440 453 q 444 457 440 453 q 460 461 449 461 q 481 453 472 461 q 489 432 489 444 q 481 411 489 419 q 460 403 472 403 q 440 411 449 403 q 431 432 431 419 q 440 453 431 444 m 446 267 q 450 272 446 267 q 466 276 454 276 q 487 267 478 276 q 496 247 496 258 q 487 226 496 235 q 466 218 478 218 q 446 226 454 218 q 438 247 438 235 q 446 267 438 258 m 265 457 q 269 461 265 457 q 285 465 274 465 q 306 457 297 465 q 314 436 314 449 q 306 415 314 424 q 285 407 297 407 q 265 415 274 407 q 256 436 256 424 q 265 457 256 449 m 275 276 q 279 281 275 276 q 295 285 283 285 q 316 276 307 285 q 325 256 325 268 q 316 235 325 243 q 295 226 307 226 q 275 235 283 226 q 267 256 267 243 q 275 276 267 268 z "},"ù":{"ha":633,"x_min":260,"x_max":840,"o":"m 260 694 l 435 694 q 407 590 419 661 q 397 515 400 553 q 394 429 393 478 q 395 353 394 381 q 400 260 396 325 q 406 174 404 196 q 456 23 411 71 q 565 -26 501 -25 q 676 35 633 -29 q 724 188 719 99 q 723 433 728 271 q 710 694 718 594 q 695 775 707 742 q 672 817 683 808 l 663 826 l 840 828 q 816 763 825 813 q 804 647 807 713 q 800 503 801 581 q 799 353 799 425 q 799 221 800 282 q 776 77 797 138 q 721 -16 756 17 q 646 -64 686 -49 q 560 -79 606 -79 q 372 -13 431 -79 q 303 206 313 53 q 297 322 301 238 q 290 447 293 406 q 283 547 288 488 q 272 640 278 606 q 260 694 267 675 z "},"ú":{"ha":464,"x_min":90,"x_max":669,"o":"m 226 329 q 231 251 228 303 q 236 174 235 199 q 287 24 242 72 q 396 -26 332 -25 q 507 35 464 -28 q 554 188 550 99 q 554 335 556 240 q 425 301 456 321 q 398 228 408 292 q 385 120 388 165 q 382 61 382 75 q 381 86 382 71 q 376 140 381 101 q 367 210 372 179 q 351 271 361 242 q 326 306 340 300 q 226 329 300 318 m 440 453 q 444 457 440 453 q 460 461 449 461 q 481 453 472 461 q 489 432 489 444 q 481 411 489 419 q 460 403 472 403 q 440 411 449 403 q 431 432 431 419 q 440 453 431 444 m 446 267 q 450 272 446 267 q 466 276 454 276 q 487 267 478 276 q 496 247 496 258 q 487 226 496 235 q 466 218 478 218 q 446 226 454 218 q 438 247 438 235 q 446 267 438 258 m 265 457 q 269 461 265 457 q 285 465 274 465 q 306 457 297 465 q 314 436 314 449 q 306 415 314 424 q 285 407 297 407 q 265 415 274 407 q 256 436 256 424 q 265 457 256 449 m 275 276 q 279 281 275 276 q 295 285 283 285 q 316 276 307 285 q 325 256 325 268 q 316 235 325 243 q 295 226 307 226 q 275 235 283 226 q 267 256 267 243 q 275 276 267 268 m 90 694 l 265 694 q 236 590 250 663 q 225 350 219 496 q 329 381 299 363 q 358 449 346 390 q 372 560 369 507 l 375 614 q 377 555 375 590 q 390 455 379 519 q 419 379 401 390 q 554 349 450 358 q 540 696 551 550 q 524 775 536 742 q 503 818 513 808 l 493 828 l 669 829 q 646 765 656 813 q 633 636 636 718 q 630 499 631 554 q 629 343 629 444 q 629 221 629 258 q 607 78 628 139 q 551 -15 586 18 q 476 -63 515 -49 q 390 -79 436 -78 q 201 -13 261 -79 q 133 206 142 53 q 127 322 132 238 q 120 447 122 406 q 113 547 118 488 q 103 641 108 606 q 90 694 97 676 z "},"":{"ha":417,"x_min":0,"x_max":0,"o":""}}}
